<svg width="70" height="23" viewBox="0 0 70 23" fill="none" xmlns="http://www.w3.org/2000/svg">
    <path fill-rule="evenodd" clip-rule="evenodd" d="M8.76855 23L1.82006 2.1474L0 1.73173L0.156557 0H9.72927L9.88583 1.73173L7.84576 2.1474L12.7976 17.504L17.7323 2.1474L15.4722 1.73173L15.6288 0H21.8434L22 1.73173L20.3365 2.1474L13.437 22.0172L8.76855 23Z" fill="#EF4136"/>
    <path fill-rule="evenodd" clip-rule="evenodd" d="M29.9428 13.0584C29.9428 10.6976 29.5111 9.20515 28.2467 9.20515C27.0445 9.20515 26.3344 10.7597 26.3344 13.3383L29.9428 13.0584ZM26.3655 14.9836C26.52 17.4393 27.9688 19.3024 30.2504 19.3024C31.8544 19.3024 33.396 18.6197 34.1055 18.122L34.9383 19.6445C33.15 21.3219 31.5461 22.0674 28.74 23C24.1768 23 21 19.9244 21 15.6363C21 12.4678 22.0795 8.8638 28.7095 7C33.15 7 35 9.76498 35 13.0276V14.9836H26.3655Z" fill="#EF4136"/>
    <path fill-rule="evenodd" clip-rule="evenodd" d="M43.7785 12.2051L46.7665 7H49.9973L50 12.1668H45.8796L44.0268 13.9808V19.919L47.3684 20.3165L47.214 22H37.3102L37.1551 20.3165L38.7643 19.919V9.63452L37.1551 9.69572L37 7.95104L41.3027 7.12443L43.2215 7.00269L43.7785 12.2051Z" fill="#EF4136"/>
    <path fill-rule="evenodd" clip-rule="evenodd" d="M62.4687 14.7361L60.0315 15.6995C59.5316 16.1965 59.2816 17.1913 59.2816 17.9668C59.2816 19.3972 60.0624 20.0485 60.6873 20.0485C61.1879 20.0485 61.6254 19.8 61.9997 19.5522L62.4687 19.2408V14.7361ZM61.4997 7C66.1557 7 67.9378 8.27399 67.9378 11.6918V17.6876C67.9378 18.8687 68.0003 19.4586 68.2811 20.0178H69.75L70 21.7267L63.7185 23L62.6871 20.4527L59.1559 23C56.1563 23 54 21.3225 54 18.7131C54 17.222 54.6874 16.0408 55.5939 15.3267L62.4687 13.2136V11.2876C62.4687 9.393 61.7813 9.17453 61.063 9.17453C60.4998 9.17453 60.0315 9.29878 59.5941 9.57871L59.237 12.6019L54.469 12.5937V9.54525L61.4997 7Z" fill="#EF4136"/>
</svg>
